<svg xmlns="http://www.w3.org/2000/svg" xmlns:xlink="http://www.w3.org/1999/xlink" version="1.1" style="" xml:space="preserve" width="231.597" height="231.597"><rect id="backgroundrect" width="100%" height="100%" x="0" y="0" fill="none" stroke="none"/>
















<g class="currentLayer" style=""><title>Layer 1</title><g id="XMLID_449_" class="selected" fill="#f92150" fill-opacity="1">
	<path id="XMLID_450_" d="M2.499,211.77h42.076c1.123,0,2.109-0.749,2.41-1.832l12.271-44.237h47.637l13.313,44.289   c0.318,1.057,1.291,1.78,2.395,1.78h43.672c0.008,0,0.016,0,0.02,0c1.381,0,2.5-1.119,2.5-2.5c0-0.369-0.078-0.719-0.223-1.034   l-55.564-179.19c-0.324-1.046-1.293-1.76-2.389-1.76h-53.26c-1.1,0-2.07,0.718-2.391,1.769L0.109,208.539   c-0.23,0.758-0.09,1.581,0.381,2.218C0.962,211.394,1.706,211.77,2.499,211.77z M99.554,130.342H66.511l9.764-34.902   c1.773-6.289,3.449-13.731,5.07-20.928c0.371-1.653,0.736-3.275,1.098-4.861c2.145,8.622,4.504,17.937,6.869,25.815L99.554,130.342   z" fill="#f92150" fill-opacity="1"/>
	<path id="XMLID_453_" d="M187.288,76.551c-1.381,0-2.5,1.119-2.5,2.5V209.27c0,1.381,1.119,2.5,2.5,2.5h40.477   c1.381,0,2.5-1.119,2.5-2.5V79.051c0-1.381-1.119-2.5-2.5-2.5H187.288z" fill="#f92150" fill-opacity="1"/>
	<path id="XMLID_454_" d="M207.261,65.571c14.102,0,24.336-9.563,24.336-22.795c-0.307-13.512-10.205-22.949-24.07-22.949   c-7.078,0-13.363,2.442-17.697,6.878c-4.067,4.16-6.234,9.886-6.108,16.127c-0.129,6.043,2.043,11.666,6.119,15.84   C194.185,63.121,200.372,65.571,207.261,65.571z" fill="#f92150" fill-opacity="1"/>
</g><g id="svg_1">
</g><g id="svg_2">
</g><g id="svg_3">
</g><g id="svg_4">
</g><g id="svg_5">
</g><g id="svg_6">
</g><g id="svg_7">
</g><g id="svg_8">
</g><g id="svg_9">
</g><g id="svg_10">
</g><g id="svg_11">
</g><g id="svg_12">
</g><g id="svg_13">
</g><g id="svg_14">
</g><g id="svg_15">
</g></g></svg>